<svg width="51" height="52" viewBox="0 0 51 52" fill="none" xmlns="http://www.w3.org/2000/svg">
<path d="M25 0V8.5L0 23V14.5L25 0Z" fill="#8C2C9E"/>
<path d="M50.5 14.5L43 19L25 8.5V0L50.5 14.5Z" fill="#9257A1"/>
<path d="M25.5 29.5V37.5L50.5 23V14.5L25.5 29.5Z" fill="#8C2C9E"/>
<path d="M25.5 29.5V37.5L0 23L7.5 18.65L25.5 29.5Z" fill="#9257A1"/>
<path d="M25 14V22.5L0 37V28.5L25 14Z" fill="#8C2C9E"/>
<path d="M50.5 28.5L43 33L25 22.5V14L50.5 28.5Z" fill="#9257A1"/>
<path d="M25.5 43.5V51.5L50.5 37V28.5L25.5 43.5Z" fill="#8C2C9E"/>
<path d="M25.5 43.5V51.5L0 37L7.5 32.65L25.5 43.5Z" fill="#9257A1"/>
</svg>
